<?xml version="1.0" encoding="UTF-8"?>
<svg xmlns="http://www.w3.org/2000/svg" style="display: none;">
<symbol id="envelope" viewBox="0 0 512 512">
<path style="fill:var(--fa-secondary-color,currentColor);opacity:var(--fa-secondary-opacity,.4)" d="M0 136l0 312 512 0 0-312-12.8 9.6-224 168-19.2 14.4-19.2-14.4-224-168-12.8-9.6z"/><path style="fill:var(--fa-primary-color,currentColor);opacity:var(--fa-primary-opacity,1)" d="M32 64l-32 0 0 72 12.8 9.6 224 168 19.2 14.4 19.2-14.4 224-168 12.8-9.6 0-72-480 0z"/>
</symbol>
<symbol id="circle-half-stroke" viewBox="0 0 512 512">
<path style="fill:var(--fa-secondary-color,currentColor);opacity:var(--fa-secondary-opacity,.4)" d="M256 0l0 64c106 0 192 86 192 192S362 448 256 448l0 64c141.4 0 256-114.6 256-256S397.4 0 256 0z"/><path style="fill:var(--fa-primary-color,currentColor);opacity:var(--fa-primary-opacity,1)" d="M256 0C114.6 0 0 114.6 0 256S114.6 512 256 512L256 0z"/>
</symbol>
<symbol id="paper-plane" viewBox="0 0 640 512">
<path style="fill:var(--fa-secondary-color,currentColor);opacity:var(--fa-secondary-opacity,.4)" d="M275.5 300.5L608-32 384 576 275.5 300.5z"/><path style="fill:var(--fa-primary-color,currentColor);opacity:var(--fa-primary-opacity,1)" d="M608-32L608-32 0 192 275.5 300.5 608-32z"/>
</symbol>
<symbol id="bars" viewBox="0 0 448 512">
<path style="fill:var(--fa-secondary-color,currentColor);opacity:var(--fa-secondary-opacity,.4)" d="M0 224l0 64 448 0 0-64-448 0z"/><path style="fill:var(--fa-primary-color,currentColor);opacity:var(--fa-primary-opacity,1)" d="M448 64l-448 0 0 64 448 0 0-64zm0 320l-448 0 0 64 448 0 0-64z"/>
</symbol>
</svg>