<?xml version="1.0" encoding="UTF-8"?>
<svg xmlns="http://www.w3.org/2000/svg" style="display: none;">
<symbol id="linkedin" viewBox="0 0 576 576">
<path fill="currentColor" d="M480 64L95.9 64C78.3 64 64 78.5 64 96.3L64 479.7C64 497.5 78.3 512 95.9 512L480 512C497.6 512 512 497.5 512 479.7L512 96.3C512 78.5 497.6 64 480 64zM199.4 448L133 448L133 234.2L199.5 234.2L199.5 448L199.4 448zM166.2 128C187.5 128 204.7 145.2 204.7 166.5C204.7 187.8 187.5 205 166.2 205C144.9 205 127.7 187.8 127.7 166.5C127.7 145.2 144.9 128 166.2 128zM448.3 448L381.9 448L381.9 344C381.9 319.2 381.4 287.3 347.4 287.3C312.8 287.3 307.5 314.3 307.5 342.2L307.5 448L241.1 448L241.1 234.2L304.8 234.2L304.8 263.4L305.7 263.4C314.6 246.6 336.3 228.9 368.6 228.9C435.8 228.9 448.3 273.2 448.3 330.8L448.3 448z"/>
</symbol>
<symbol id="instagram" viewBox="0 0 576 576">
<path fill="currentColor" d="M288.3 173C224.8 172.8 173.2 224.2 173 287.7C172.8 351.2 224.2 402.8 287.7 403C351.2 403.2 402.8 351.8 403 288.3C403.2 224.8 351.8 173.2 288.3 173zM287.7 213.4C328.9 213.2 362.4 246.5 362.6 287.7C362.8 328.9 329.5 362.4 288.3 362.6C247.1 362.8 213.6 329.5 213.4 288.3C213.2 247.1 246.5 213.6 287.7 213.4zM381.1 168.3C381.1 153.5 393.1 141.5 407.9 141.5C422.7 141.5 434.7 153.5 434.7 168.3C434.7 183.1 422.7 195.1 407.9 195.1C393.1 195.1 381.1 183.1 381.1 168.3zM510.8 195.5C509.1 159.6 500.9 127.8 474.6 101.6C448.4 75.4 416.6 67.2 380.7 65.4C343.7 63.3 232.8 63.3 195.8 65.4C160 67.1 128.2 75.3 101.9 101.5C75.6 127.7 67.5 159.5 65.7 195.4C63.6 232.4 63.6 343.3 65.7 380.3C67.4 416.2 75.6 448 101.9 474.2C128.2 500.4 159.9 508.6 195.8 510.4C232.8 512.5 343.7 512.5 380.7 510.4C416.6 508.7 448.4 500.5 474.6 474.2C500.8 448 509 416.2 510.8 380.3C512.9 343.3 512.9 232.5 510.8 195.5zM463 420C455.2 439.6 440.1 454.7 420.4 462.6C390.9 474.3 320.9 471.6 288.3 471.6C255.7 471.6 185.6 474.2 156.2 462.6C136.6 454.8 121.5 439.7 113.6 420C101.9 390.5 104.6 320.5 104.6 287.9C104.6 255.3 102 185.2 113.6 155.8C121.4 136.2 136.5 121.1 156.2 113.2C185.7 101.5 255.7 104.2 288.3 104.2C320.9 104.2 391 101.6 420.4 113.2C440 121 455.1 136.1 463 155.8C474.7 185.3 472 255.3 472 287.9C472 320.5 474.7 390.6 463 420z"/>
</symbol>
<symbol id="whatsapp" viewBox="0 0 576 576">
<path fill="currentColor" d="M444.9 129.1C403 87.1 347.2 64 287.9 64C165.5 64 65.9 163.6 65.9 286C65.9 325.1 76.1 363.3 95.5 397L64 512L181.7 481.1C214.1 498.8 250.6 508.1 287.8 508.1L287.9 508.1C410.2 508.1 512 408.5 512 286.1C512 226.8 486.8 171.1 444.9 129.1zM287.9 470.7C254.7 470.7 222.2 461.8 193.9 445L187.2 441L117.4 459.3L136 391.2L131.6 384.2C113.1 354.8 103.4 320.9 103.4 286C103.4 184.3 186.2 101.5 288 101.5C337.3 101.5 383.6 120.7 418.4 155.6C453.2 190.5 474.6 236.8 474.5 286.1C474.5 387.9 389.6 470.7 287.9 470.7zM389.1 332.5C383.6 329.7 356.3 316.3 351.2 314.5C346.1 312.6 342.4 311.7 338.7 317.3C335 322.9 324.4 335.3 321.1 339.1C317.9 342.8 314.6 343.3 309.1 340.5C276.5 324.2 255.1 311.4 233.6 274.5C227.9 264.7 239.3 265.4 249.9 244.2C251.7 240.5 250.8 237.3 249.4 234.5C248 231.7 236.9 204.4 232.3 193.3C227.8 182.5 223.2 184 219.8 183.8C216.6 183.6 212.9 183.6 209.2 183.6C205.5 183.6 199.5 185 194.4 190.5C189.3 196.1 175 209.5 175 236.8C175 264.1 194.9 290.5 197.6 294.2C200.4 297.9 236.7 353.9 292.4 378C327.6 393.2 341.4 394.5 359 391.9C369.7 390.3 391.8 378.5 396.4 365.5C401 352.5 401 341.4 399.6 339.1C398.3 336.6 394.6 335.2 389.1 332.5z"/>
</symbol>
</svg>