<?xml version="1.0" encoding="UTF-8"?>
<svg xmlns="http://www.w3.org/2000/svg" style="display: none;">
<symbol id="envelope" viewBox="0 0 576 576">
<path style="fill:var(--fa-secondary-color,currentColor);opacity:var(--fa-secondary-opacity,.4)" d="M32 168L32 480L544 480L544 168L531.2 177.6L307.2 345.6L288 360L268.8 345.6L44.8 177.6L32 168z"/><path style="fill:var(--fa-primary-color,currentColor);opacity:var(--fa-primary-opacity,1)" d="M64 96L32 96L32 168L44.8 177.6L268.8 345.6L288 360L307.2 345.6L531.2 177.6L544 168L544 96L64 96z"/>
</symbol>
<symbol id="paper-plane" viewBox="0 0 576 576">
<path style="fill:var(--fa-secondary-color,currentColor);opacity:var(--fa-secondary-opacity,.4)" d="M248 313.7L547.2 14.4L345.6 561.6L248 313.7z"/><path style="fill:var(--fa-primary-color,currentColor);opacity:var(--fa-primary-opacity,1)" d="M547.2 14.4L547.2 14.4L0 216L248 313.7L547.2 14.4z"/>
</symbol>
<symbol id="circle-half-stroke" viewBox="0 0 576 576">
<path style="fill:var(--fa-secondary-color,currentColor);opacity:var(--fa-secondary-opacity,.4)" d="M288 32L288 96C394 96 480 182 480 288C480 394 394 480 288 480L288 544C429.4 544 544 429.4 544 288C544 146.6 429.4 32 288 32z"/><path style="fill:var(--fa-primary-color,currentColor);opacity:var(--fa-primary-opacity,1)" d="M288 32C146.6 32 32 146.6 32 288C32 429.4 146.6 544 288 544L288 32z"/>
</symbol>
<symbol id="bars" viewBox="0 0 576 576">
<path style="fill:var(--fa-secondary-color,currentColor);opacity:var(--fa-secondary-opacity,.4)" d="M64 256L64 320L512 320L512 256L64 256z"/><path style="fill:var(--fa-primary-color,currentColor);opacity:var(--fa-primary-opacity,1)" d="M512 96L64 96L64 160L512 160L512 96zM512 416L64 416L64 480L512 480L512 416z"/>
</symbol>
</svg>